<?xml version="1.0" standalone="no"?>
<!DOCTYPE svg PUBLIC "-//W3C//DTD SVG 20010904//EN"
 "http://www.w3.org/TR/2001/REC-SVG-20010904/DTD/svg10.dtd">
<svg version="1.0" xmlns="http://www.w3.org/2000/svg"
 width="150.000000pt" height="150.000000pt" viewBox="0 0 150.000000 150.000000"
 preserveAspectRatio="xMidYMid meet">
<metadata>
Created by potrace 1.14, written by Peter Selinger 2001-2017
</metadata>
<g transform="translate(0.000000,150.000000) scale(0.100000,-0.100000)"
fill="#000000" stroke="none">
<path d="M295 1350 c-11 -4 193 -10 465 -12 409 -2 489 -5 508 -18 12 -8 22
-19 22 -24 0 -5 7 -18 17 -28 9 -10 13 -21 9 -25 -4 -4 -11 -1 -16 6 -11 19
-64 25 -57 7 4 -10 -29 -19 -136 -36 -78 -12 -145 -26 -148 -32 -4 -5 -41 -11
-82 -13 -85 -4 -120 -12 -112 -26 4 -5 -22 -9 -59 -9 -37 0 -66 -4 -66 -10 0
-6 87 -10 240 -10 l241 0 -3 -92 -3 -93 -32 -3 -32 -3 -3 58 -3 58 -96 3 -96
3 -6 -83 c-4 -46 -7 -183 -7 -305 l0 -223 50 0 c49 0 50 -1 50 -30 l0 -30
-196 0 -195 0 3 28 c3 25 7 27 51 30 l47 3 -2 302 -3 302 -97 3 -98 3 0 -61 0
-60 -35 0 -34 0 -3 87 c-2 60 -7 87 -16 89 -7 1 -8 0 -2 -3 17 -8 11 -30 -10
-36 -15 -4 -20 0 -21 16 -1 16 -3 18 -6 5 -4 -17 -77 -38 -133 -38 l-30 0 0
87 c0 47 -2 84 -5 81 -12 -12 -13 -139 -6 -533 10 -465 10 -466 74 -505 31
-19 54 -20 527 -20 473 0 496 1 527 20 18 10 38 32 46 47 18 34 27 265 29 688
2 314 -2 342 -50 388 -56 54 -88 57 -557 56 -237 0 -439 -4 -450 -9z"/>
<path d="M225 1330 c-8 -13 5 -13 25 0 13 8 13 10 -2 10 -9 0 -20 -4 -23 -10z"/>
<path d="M161 1254 c0 -11 3 -14 6 -6 3 7 2 16 -1 19 -3 4 -6 -2 -5 -13z"/>
</g>
</svg>
